<svg id="Layer_2" data-name="Layer 2" xmlns="http://www.w3.org/2000/svg" viewBox="0 0 348.79 395.15"><defs><style>.cls-1{fill:#231f20;}.cls-2{fill:none;stroke:#231f20;stroke-miterlimit:10;stroke-width:8px;}</style></defs><polyline class="cls-1" points="162.63 159.67 162.65 159.68 149.46 167.25 162.67 174.98 175.58 167.3 175.67 167.25 175.76 167.2 188.92 174.91 201.79 167.17 188.92 159.59"/><path class="cls-1" d="M501.28,454.36" transform="translate(-325.6 -302.42)"/><polyline class="cls-1" points="188.92 159.59 201.79 151.86 188.92 144.28 175.71 151.86 175.55 151.96 175.5 151.94 162.63 144.36 149.42 151.94 162.63 159.67"/><path class="cls-2" d="M501.69,426l-61.28,35.14a.63.63,0,0,0,0,1.09l61.27,35.88a.66.66,0,0,0,.65,0L562,462.23a.64.64,0,0,0,0-1.09L502.32,426A.62.62,0,0,0,501.69,426Z" transform="translate(-325.6 -302.42)"/><path class="cls-2" d="M489.86,432.19" transform="translate(-325.6 -302.42)"/><path class="cls-2" d="M561.35,462.22l59.7-35.87" transform="translate(-325.6 -302.42)"/><path class="cls-2" d="M380.71,569.08l59.7-35.88" transform="translate(-325.6 -302.42)"/><path class="cls-2" d="M502.79,569.08l-.05,69.64" transform="translate(-325.6 -302.42)"/><path class="cls-2" d="M502.79,356.27l-.05,69.65" transform="translate(-325.6 -302.42)"/><path class="cls-2" d="M440.41,485.81l61.27,35.87a.63.63,0,0,0,.65,0L562,485.81a.64.64,0,0,0,0-1.09" transform="translate(-325.6 -302.42)"/><path class="cls-2" d="M563.22,532.06l61.27,35.88" transform="translate(-325.6 -302.42)"/><path class="cls-2" d="M378.82,425.17,440.09,461" transform="translate(-325.6 -302.42)"/><path class="cls-2" d="M441.21,508.11a.63.63,0,0,0,0,1.09l61.28,35.87a.61.61,0,0,0,.64,0l59.7-35.87" transform="translate(-325.6 -302.42)"/><path class="cls-2" d="M441.21,531.06c0,.46,0,.46,0,1.1L502.48,568a.61.61,0,0,0,.64,0l59.7-35.88a.63.63,0,0,0,0-1.08" transform="translate(-325.6 -302.42)"/><line class="cls-2" x1="114.6" y1="158.71" x2="115.6" y2="229.73"/><line class="cls-2" x1="237.61" y1="229.64" x2="236.61" y2="158.62"/><path class="cls-2" d="M645,386.52l-25.62,14.69a.26.26,0,0,0,0,.46l25.62,15a.26.26,0,0,0,.27,0l25-15a.26.26,0,0,0,0-.45l-25-14.7A.32.32,0,0,0,645,386.52Z" transform="translate(-325.6 -302.42)"/><path class="cls-2" d="M619.42,427.61a.26.26,0,0,0,0,.46l25.62,15a.26.26,0,0,0,.27,0l25-15a.27.27,0,0,0,0-.46" transform="translate(-325.6 -302.42)"/><line class="cls-2" x1="293.81" y1="99.25" x2="293.81" y2="125.19"/><line class="cls-2" x1="344.66" y1="98.79" x2="344.66" y2="125.19"/><line class="cls-2" x1="319.7" y1="114.25" x2="319.7" y2="140.65"/><path class="cls-2" d="M503.45,637l-25.62,14.69a.27.27,0,0,0,0,.46l25.62,15a.26.26,0,0,0,.27,0l25-15a.27.27,0,0,0,0-.46l-25-14.69A.32.32,0,0,0,503.45,637Z" transform="translate(-325.6 -302.42)"/><path class="cls-2" d="M477.83,678.08a.27.27,0,0,0,0,.46l25.62,15a.26.26,0,0,0,.27,0l25-15a.27.27,0,0,0,0-.46" transform="translate(-325.6 -302.42)"/><line class="cls-2" x1="152.23" y1="349.72" x2="152.23" y2="375.66"/><line class="cls-2" x1="203.08" y1="349.26" x2="203.08" y2="375.66"/><line class="cls-2" x1="178.12" y1="364.72" x2="178.12" y2="391.12"/><path class="cls-2" d="M355.36,386.52l-25.62,14.69a.26.26,0,0,0,0,.46l25.62,15a.26.26,0,0,0,.27,0l25-15a.26.26,0,0,0,0-.45l-25-14.7A.3.3,0,0,0,355.36,386.52Z" transform="translate(-325.6 -302.42)"/><path class="cls-2" d="M329.74,427.61a.26.26,0,0,0,0,.46l25.62,15a.26.26,0,0,0,.27,0l25-15a.27.27,0,0,0,0-.46" transform="translate(-325.6 -302.42)"/><line class="cls-2" x1="4.13" y1="99.25" x2="4.13" y2="125.19"/><line class="cls-2" x1="54.98" y1="98.79" x2="54.98" y2="125.19"/><line class="cls-2" x1="30.02" y1="114.25" x2="30.02" y2="140.65"/><path class="cls-2" d="M645,555.11,619.42,569.8a.26.26,0,0,0,0,.46l25.62,15a.26.26,0,0,0,.27,0l25-15a.27.27,0,0,0,0-.46l-25-14.69A.26.26,0,0,0,645,555.11Z" transform="translate(-325.6 -302.42)"/><path class="cls-2" d="M619.42,596.2a.26.26,0,0,0,0,.46l25.62,15a.26.26,0,0,0,.27,0l25-15a.27.27,0,0,0,0-.46" transform="translate(-325.6 -302.42)"/><line class="cls-2" x1="293.81" y1="267.83" x2="293.81" y2="293.78"/><line class="cls-2" x1="344.66" y1="267.38" x2="344.66" y2="293.78"/><line class="cls-2" x1="319.7" y1="282.83" x2="319.7" y2="309.23"/><path class="cls-2" d="M355.36,555.11,329.74,569.8a.26.26,0,0,0,0,.46l25.62,15a.26.26,0,0,0,.27,0l25-15a.27.27,0,0,0,0-.46l-25-14.69A.24.24,0,0,0,355.36,555.11Z" transform="translate(-325.6 -302.42)"/><path class="cls-2" d="M329.74,596.2a.26.26,0,0,0,0,.46l25.62,15a.26.26,0,0,0,.27,0l25-15a.27.27,0,0,0,0-.46" transform="translate(-325.6 -302.42)"/><line class="cls-2" x1="4.13" y1="267.83" x2="4.13" y2="293.78"/><line class="cls-2" x1="54.98" y1="267.38" x2="54.98" y2="293.78"/><line class="cls-2" x1="30.02" y1="282.83" x2="30.02" y2="309.23"/><path class="cls-2" d="M503,306.46l-25.62,14.69a.26.26,0,0,0,0,.46l25.62,15a.26.26,0,0,0,.27,0l25-15a.27.27,0,0,0,0-.46l-25-14.69A.24.24,0,0,0,503,306.46Z" transform="translate(-325.6 -302.42)"/><path class="cls-2" d="M477.37,347.55a.26.26,0,0,0,0,.46L503,363a.26.26,0,0,0,.27,0l25-15a.26.26,0,0,0,0-.45" transform="translate(-325.6 -302.42)"/><line class="cls-2" x1="151.76" y1="19.18" x2="151.76" y2="45.13"/><line class="cls-2" x1="202.61" y1="18.73" x2="202.61" y2="45.13"/><line class="cls-2" x1="177.65" y1="34.18" x2="177.65" y2="60.58"/></svg>