<svg id="Layer_2" data-name="Layer 2" xmlns="http://www.w3.org/2000/svg" viewBox="0 0 348.79 395.15"><defs><style>.cls-1{fill:#231f20;}.cls-1,.cls-3{stroke:#fff;stroke-miterlimit:10;}.cls-2{fill:#fff;}.cls-3{fill:none;stroke-width:8px;}</style></defs><path class="cls-1" d="M568.41,563.76" transform="translate(-392.73 -411.82)"/><polygon class="cls-2" points="201.79 151.86 188.92 144.28 175.71 151.86 175.55 151.96 175.5 151.94 162.63 144.36 149.42 151.94 162.63 159.67 162.65 159.68 149.46 167.25 162.67 174.98 175.58 167.3 175.67 167.25 175.76 167.2 188.92 174.91 201.79 167.17 188.92 159.59 201.79 151.86"/><path class="cls-3" d="M568.82,535.4l-61.28,35.13a.64.64,0,0,0,0,1.1l61.27,35.87a.63.63,0,0,0,.65,0l59.69-35.87a.64.64,0,0,0,0-1.09l-59.7-35.14A.64.64,0,0,0,568.82,535.4Z" transform="translate(-392.73 -411.82)"/><path class="cls-3" d="M557,541.59" transform="translate(-392.73 -411.82)"/><line class="cls-3" x1="235.75" y1="159.8" x2="295.44" y2="123.93"/><line class="cls-3" x1="55.11" y1="266.66" x2="114.8" y2="230.78"/><line class="cls-3" x1="177.18" y1="266.66" x2="177.14" y2="336.3"/><line class="cls-3" x1="177.18" y1="53.85" x2="177.14" y2="123.49"/><path class="cls-3" d="M507.54,595.21l61.27,35.87a.63.63,0,0,0,.65,0l59.69-35.88a.63.63,0,0,0,0-1.08" transform="translate(-392.73 -411.82)"/><line class="cls-3" x1="237.61" y1="229.64" x2="298.89" y2="265.52"/><line class="cls-3" x1="53.21" y1="122.75" x2="114.49" y2="158.62"/><path class="cls-3" d="M508.34,617.5a.64.64,0,0,0,0,1.1l61.28,35.87a.61.61,0,0,0,.64,0L630,618.59" transform="translate(-392.73 -411.82)"/><path class="cls-3" d="M508.34,640.46c0,.45,0,.45,0,1.09l61.28,35.88a.64.64,0,0,0,.64,0L630,641.55a.64.64,0,0,0,0-1.09" transform="translate(-392.73 -411.82)"/><line class="cls-3" x1="114.6" y1="158.71" x2="115.6" y2="229.73"/><line class="cls-3" x1="237.61" y1="229.64" x2="236.61" y2="158.62"/><path class="cls-3" d="M712.17,495.92l-25.62,14.69a.26.26,0,0,0,0,.46l25.62,15a.26.26,0,0,0,.27,0l25-15a.27.27,0,0,0,0-.46l-25-14.69A.26.26,0,0,0,712.17,495.92Z" transform="translate(-392.73 -411.82)"/><path class="cls-3" d="M686.55,537a.26.26,0,0,0,0,.46l25.62,15a.26.26,0,0,0,.27,0l25-15a.27.27,0,0,0,0-.46" transform="translate(-392.73 -411.82)"/><line class="cls-3" x1="293.81" y1="99.25" x2="293.81" y2="125.19"/><line class="cls-3" x1="344.66" y1="98.79" x2="344.66" y2="125.19"/><line class="cls-3" x1="319.7" y1="114.25" x2="319.7" y2="140.65"/><path class="cls-3" d="M570.59,746.39,545,761.08a.27.27,0,0,0,0,.46l25.62,15a.26.26,0,0,0,.27,0l25-15a.27.27,0,0,0,0-.46l-25-14.69A.24.24,0,0,0,570.59,746.39Z" transform="translate(-392.73 -411.82)"/><path class="cls-3" d="M545,787.48a.27.27,0,0,0,0,.46l25.62,15a.26.26,0,0,0,.27,0l25-15a.27.27,0,0,0,0-.46" transform="translate(-392.73 -411.82)"/><line class="cls-3" x1="152.23" y1="349.72" x2="152.23" y2="375.66"/><line class="cls-3" x1="203.08" y1="349.26" x2="203.08" y2="375.66"/><line class="cls-3" x1="178.12" y1="364.72" x2="178.12" y2="391.12"/><path class="cls-3" d="M422.49,495.92l-25.62,14.69a.26.26,0,0,0,0,.46l25.62,15a.26.26,0,0,0,.27,0l25-15a.27.27,0,0,0,0-.46l-25-14.69A.24.24,0,0,0,422.49,495.92Z" transform="translate(-392.73 -411.82)"/><path class="cls-3" d="M396.87,537a.26.26,0,0,0,0,.46l25.62,15a.26.26,0,0,0,.27,0l25-15a.27.27,0,0,0,0-.46" transform="translate(-392.73 -411.82)"/><line class="cls-3" x1="4.13" y1="99.25" x2="4.13" y2="125.19"/><line class="cls-3" x1="54.98" y1="98.79" x2="54.98" y2="125.19"/><line class="cls-3" x1="30.02" y1="114.25" x2="30.02" y2="140.65"/><path class="cls-3" d="M712.17,664.51,686.55,679.2a.26.26,0,0,0,0,.46l25.62,15a.29.29,0,0,0,.27,0l25-15a.26.26,0,0,0,0-.45l-25-14.69A.26.26,0,0,0,712.17,664.51Z" transform="translate(-392.73 -411.82)"/><path class="cls-3" d="M686.55,705.6a.26.26,0,0,0,0,.45l25.62,15a.26.26,0,0,0,.27,0l25-15a.26.26,0,0,0,0-.45" transform="translate(-392.73 -411.82)"/><line class="cls-3" x1="293.81" y1="267.83" x2="293.81" y2="293.78"/><line class="cls-3" x1="344.66" y1="267.38" x2="344.66" y2="293.78"/><line class="cls-3" x1="319.7" y1="282.83" x2="319.7" y2="309.23"/><path class="cls-3" d="M422.49,664.51,396.87,679.2a.26.26,0,0,0,0,.46l25.62,15a.29.29,0,0,0,.27,0l25-15a.26.26,0,0,0,0-.45l-25-14.69A.24.24,0,0,0,422.49,664.51Z" transform="translate(-392.73 -411.82)"/><path class="cls-3" d="M396.87,705.6a.26.26,0,0,0,0,.45l25.62,15a.26.26,0,0,0,.27,0l25-15a.26.26,0,0,0,0-.45" transform="translate(-392.73 -411.82)"/><line class="cls-3" x1="4.13" y1="267.83" x2="4.13" y2="293.78"/><line class="cls-3" x1="54.98" y1="267.38" x2="54.98" y2="293.78"/><line class="cls-3" x1="30.02" y1="282.83" x2="30.02" y2="309.23"/><path class="cls-3" d="M570.12,415.86,544.5,430.55a.25.25,0,0,0,0,.45l25.62,15a.26.26,0,0,0,.27,0l25-15a.26.26,0,0,0,0-.45l-25-14.69A.24.24,0,0,0,570.12,415.86Z" transform="translate(-392.73 -411.82)"/><path class="cls-3" d="M544.5,457a.26.26,0,0,0,0,.45l25.62,15a.26.26,0,0,0,.27,0l25-15a.26.26,0,0,0,0-.45" transform="translate(-392.73 -411.82)"/><line class="cls-3" x1="151.76" y1="19.18" x2="151.76" y2="45.13"/><line class="cls-3" x1="202.61" y1="18.73" x2="202.61" y2="45.13"/><line class="cls-3" x1="177.65" y1="34.18" x2="177.65" y2="60.58"/></svg>